<svg id="undraw_quite_town_mg2q" xmlns="http://www.w3.org/2000/svg" width="837" height="450.454" viewBox="0 0 837 450.454">
  <path id="Path_7" data-name="Path 7" d="M336.8,682.446h-1.885a88.577,88.577,0,1,0-177.154,0h-1.885a90.462,90.462,0,0,1,180.923,0Z" transform="translate(-155.878 -232.964)" fill="#282828"/>
  <path id="Path_8" data-name="Path 8" d="M1032.8,682.446h-1.885a88.577,88.577,0,0,0-177.154,0H851.88a90.462,90.462,0,0,1,180.923,0Z" transform="translate(-196.031 -232.964)" fill="#282828"/>
  <path id="Path_9" data-name="Path 9" d="M788.8,448.946h-1.885c0-89.37-72.708-162.077-162.077-162.077S462.763,359.576,462.763,448.946h-1.885c0-90.409,73.553-163.962,163.962-163.962S788.8,358.537,788.8,448.946Z" transform="translate(-173.474 -215.253)" fill="#282828"/>
  <circle id="Ellipse_8" data-name="Ellipse 8" cx="37" cy="37" r="37" transform="translate(100)" fill="#ff6584"/>
  <path id="Path_10" data-name="Path 10" d="M153.891,306.722l63.946-76.155H343.559l76.83,74.834-1.552,1h.554V462.055H153.979V306.4Z" transform="translate(-8.878 -13.302)" fill="#282828"/>
  <rect id="Rectangle_30" data-name="Rectangle 30" width="14.495" height="50.177" transform="translate(197.981 260.311) rotate(180)" fill="#282828"/>
  <path id="Path_11" data-name="Path 11" d="M216.845,229.508l78.825,92.415v140.07H153.984V304.342Z" transform="translate(-8.884 -13.241)" fill="#1c2aa5"/>
  <rect id="Rectangle_31" data-name="Rectangle 31" width="28.936" height="29.587" transform="translate(239.635 327.023)" fill="#3f3d56"/>
  <rect id="Rectangle_32" data-name="Rectangle 32" width="28.936" height="29.587" transform="translate(239.635 367.281)" fill="#3f3d56"/>
  <rect id="Rectangle_33" data-name="Rectangle 33" width="28.936" height="29.587" transform="translate(239.635 327.023)" fill="#fff"/>
  <rect id="Rectangle_34" data-name="Rectangle 34" width="28.936" height="29.587" transform="translate(239.635 367.281)" fill="#fff"/>
  <rect id="Rectangle_35" data-name="Rectangle 35" width="28.936" height="29.587" transform="translate(199.617 327.023)" fill="#3f3d56"/>
  <rect id="Rectangle_36" data-name="Rectangle 36" width="28.936" height="29.587" transform="translate(199.617 367.281)" fill="#3f3d56"/>
  <rect id="Rectangle_37" data-name="Rectangle 37" width="28.936" height="29.587" transform="translate(199.617 327.023)" fill="#fff"/>
  <rect id="Rectangle_38" data-name="Rectangle 38" width="28.936" height="29.587" transform="translate(199.617 367.281)" fill="#fff"/>
  <rect id="Rectangle_39" data-name="Rectangle 39" width="28.936" height="29.587" transform="translate(159.598 327.023)" fill="#3f3d56"/>
  <rect id="Rectangle_40" data-name="Rectangle 40" width="28.936" height="29.587" transform="translate(159.598 367.281)" fill="#3f3d56"/>
  <rect id="Rectangle_41" data-name="Rectangle 41" width="28.936" height="29.587" transform="translate(159.598 327.023)" fill="#fff"/>
  <rect id="Rectangle_42" data-name="Rectangle 42" width="28.936" height="29.587" transform="translate(159.598 367.281)" fill="#fff"/>
  <rect id="Rectangle_43" data-name="Rectangle 43" width="13" height="33" transform="translate(457 38)" fill="#1c2aa5"/>
  <rect id="Rectangle_44" data-name="Rectangle 44" width="112" height="381" transform="translate(357 68)" fill="#1c2aa5"/>
  <path id="Path_31" data-name="Path 31" d="M0,0H46V381H0Z" transform="translate(469 68)" fill="#282828"/>
  <rect id="Rectangle_46" data-name="Rectangle 46" width="16.962" height="16.962" transform="translate(377.395 100.827)" fill="#fff"/>
  <rect id="Rectangle_47" data-name="Rectangle 47" width="16.962" height="16.962" transform="translate(404.721 100.827)" fill="#fff"/>
  <rect id="Rectangle_48" data-name="Rectangle 48" width="16.962" height="16.962" transform="translate(432.048 100.827)" fill="#fff"/>
  <rect id="Rectangle_49" data-name="Rectangle 49" width="17" height="17" transform="translate(378 139)" fill="#fff"/>
  <rect id="Rectangle_50" data-name="Rectangle 50" width="17" height="17" transform="translate(405 139)" fill="#fff"/>
  <rect id="Rectangle_51" data-name="Rectangle 51" width="16" height="17" transform="translate(433 139)" fill="#fff"/>
  <rect id="Rectangle_52" data-name="Rectangle 52" width="16.962" height="16.962" transform="translate(378.337 178.096)" fill="#fff"/>
  <rect id="Rectangle_53" data-name="Rectangle 53" width="16.962" height="16.962" transform="translate(405.664 178.096)" fill="#fff"/>
  <rect id="Rectangle_54" data-name="Rectangle 54" width="16.962" height="16.962" transform="translate(432.991 178.096)" fill="#fff"/>
  <rect id="Rectangle_55" data-name="Rectangle 55" width="17" height="17" transform="translate(379 217)" fill="#fff"/>
  <rect id="Rectangle_56" data-name="Rectangle 56" width="17" height="17" transform="translate(406 217)" fill="#fff"/>
  <rect id="Rectangle_57" data-name="Rectangle 57" width="17" height="17" transform="translate(433 217)" fill="#fff"/>
  <rect id="Rectangle_58" data-name="Rectangle 58" width="16.962" height="16.962" transform="translate(379.279 255.366)" fill="#fff"/>
  <rect id="Rectangle_59" data-name="Rectangle 59" width="16.962" height="16.962" transform="translate(406.606 255.366)" fill="#fff"/>
  <rect id="Rectangle_60" data-name="Rectangle 60" width="16.962" height="16.962" transform="translate(433.933 255.366)" fill="#fff"/>
  <rect id="Rectangle_61" data-name="Rectangle 61" width="17" height="17" transform="translate(380 294)" fill="#fff"/>
  <rect id="Rectangle_62" data-name="Rectangle 62" width="17" height="17" transform="translate(407 294)" fill="#fff"/>
  <rect id="Rectangle_63" data-name="Rectangle 63" width="17" height="17" transform="translate(434 294)" fill="#fff"/>
  <rect id="Rectangle_64" data-name="Rectangle 64" width="16.962" height="16.962" transform="translate(380.221 332.635)" fill="#fff"/>
  <rect id="Rectangle_65" data-name="Rectangle 65" width="16.962" height="16.962" transform="translate(407.548 332.635)" fill="#fff"/>
  <rect id="Rectangle_66" data-name="Rectangle 66" width="16.962" height="16.962" transform="translate(434.875 332.635)" fill="#fff"/>
  <rect id="Rectangle_67" data-name="Rectangle 67" width="17" height="17" transform="translate(381 371)" fill="#fff"/>
  <rect id="Rectangle_68" data-name="Rectangle 68" width="17" height="17" transform="translate(408 371)" fill="#fff"/>
  <rect id="Rectangle_69" data-name="Rectangle 69" width="17" height="32" transform="translate(408 417)" fill="#fff"/>
  <rect id="Rectangle_70" data-name="Rectangle 70" width="17" height="17" transform="translate(435 371)" fill="#fff"/>
  <rect id="Rectangle_71" data-name="Rectangle 71" width="8" height="32" transform="translate(469 38)" fill="#282828"/>
  <rect id="Rectangle_72" data-name="Rectangle 72" width="13.192" height="19.547" transform="translate(598.366 205.423)" fill="#1c2aa5"/>
  <rect id="Rectangle_73" data-name="Rectangle 73" width="112.135" height="226.186" transform="translate(498.481 223.295)" fill="#1c2aa5"/>
  <path id="Path_32" data-name="Path 32" d="M0,0H45.231V226.186H0Z" transform="translate(610.616 223.295)" fill="#282828"/>
  <rect id="Rectangle_75" data-name="Rectangle 75" width="16.962" height="16.962" transform="translate(520.625 255.366)" fill="#fff"/>
  <rect id="Rectangle_76" data-name="Rectangle 76" width="16.962" height="16.962" transform="translate(547.952 255.366)" fill="#fff"/>
  <rect id="Rectangle_77" data-name="Rectangle 77" width="16.962" height="16.962" transform="translate(575.279 255.366)" fill="#fff"/>
  <rect id="Rectangle_78" data-name="Rectangle 78" width="17" height="17" transform="translate(521 294)" fill="#fff"/>
  <rect id="Rectangle_79" data-name="Rectangle 79" width="17" height="17" transform="translate(548 294)" fill="#fff"/>
  <rect id="Rectangle_80" data-name="Rectangle 80" width="17" height="17" transform="translate(576 294)" fill="#fff"/>
  <rect id="Rectangle_81" data-name="Rectangle 81" width="16.962" height="16.962" transform="translate(521.568 332.635)" fill="#fff"/>
  <rect id="Rectangle_82" data-name="Rectangle 82" width="16.962" height="16.962" transform="translate(548.895 332.635)" fill="#fff"/>
  <rect id="Rectangle_83" data-name="Rectangle 83" width="16.962" height="16.962" transform="translate(576.222 332.635)" fill="#fff"/>
  <rect id="Rectangle_84" data-name="Rectangle 84" width="17" height="17" transform="translate(522 371)" fill="#fff"/>
  <rect id="Rectangle_85" data-name="Rectangle 85" width="17" height="17" transform="translate(549 371)" fill="#fff"/>
  <rect id="Rectangle_86" data-name="Rectangle 86" width="17" height="32" transform="translate(549 417)" fill="#fff"/>
  <rect id="Rectangle_87" data-name="Rectangle 87" width="17" height="17" transform="translate(577 371)" fill="#fff"/>
  <rect id="Rectangle_88" data-name="Rectangle 88" width="7.538" height="18.988" transform="translate(610.616 205.423)" fill="#282828"/>
  <rect id="Rectangle_89" data-name="Rectangle 89" width="836.77" height="2.111" transform="translate(0.23 448.343)" fill="#282828"/>
  <circle id="Ellipse_9" data-name="Ellipse 9" cx="24.538" cy="24.538" r="24.538" transform="translate(665.854 356.193)" fill="#1c2aa5"/>
  <path id="Path_12" data-name="Path 12" d="M905.4,597.631A24.54,24.54,0,0,1,864.517,623.6a24.54,24.54,0,1,0,40.888-25.971Z" transform="translate(-196.76 -233.29)" opacity="0.2"/>
  <path id="Path_13" data-name="Path 13" d="M732.653,404.041h.068l1.213,69.57h-2.561Z" transform="translate(-42.194 -23.31)" fill="#282828"/>
  <rect id="Rectangle_90" data-name="Rectangle 90" width="1.213" height="4.584" transform="translate(694.36 417.553) rotate(62.234)" fill="#282828"/>
  <circle id="Ellipse_10" data-name="Ellipse 10" cx="37.315" cy="37.315" r="37.315" transform="translate(725.218 307.192)" fill="#1c2aa5"/>
  <path id="Path_14" data-name="Path 14" d="M990.746,550.134a37.318,37.318,0,0,1-62.177,39.493,37.318,37.318,0,1,0,62.177-39.493Z" transform="translate(-200.456 -230.55)" opacity="0.2"/>
  <path id="Path_15" data-name="Path 15" d="M809.208,365.6h.1l1.845,105.794h-3.9Z" transform="translate(-46.572 -21.092)" fill="#282828"/>
  <rect id="Rectangle_91" data-name="Rectangle 91" width="1.845" height="6.971" transform="translate(768.569 400.501) rotate(62.234)" fill="#282828"/>
  <circle id="Ellipse_11" data-name="Ellipse 11" cx="24.538" cy="24.538" r="24.538" transform="translate(0.583 355.251)" fill="#1c2aa5"/>
  <path id="Path_16" data-name="Path 16" d="M199.4,596.631A24.54,24.54,0,0,1,158.517,622.6,24.54,24.54,0,1,0,199.4,596.631Z" transform="translate(-156.03 -233.232)" opacity="0.2"/>
  <path id="Path_17" data-name="Path 17" d="M26.653,403.041h.068l1.213,69.57H25.372Z" transform="translate(-1.464 -23.252)" fill="#282828"/>
  <rect id="Rectangle_92" data-name="Rectangle 92" width="1.213" height="4.584" transform="translate(29.089 416.61) rotate(62.234)" fill="#282828"/>
  <path id="Path_18" data-name="Path 18" d="M761.5,247.888l8.675-6.938c-6.739-.743-9.508,2.932-10.641,5.841-5.265-2.186-11,.679-11,.679l17.356,6.3a13.134,13.134,0,0,0-4.394-5.883Z" transform="translate(-190.069 -212.707)" fill="#282828"/>
  <path id="Path_19" data-name="Path 19" d="M299.5,284.888l8.675-6.938c-6.739-.743-9.508,2.932-10.641,5.841-5.265-2.186-11,.679-11,.679l17.356,6.3A13.134,13.134,0,0,0,299.5,284.888Z" transform="translate(-163.416 -214.841)" fill="#282828"/>
  <path id="Path_20" data-name="Path 20" d="M901.5,322.888l8.675-6.938c-6.739-.743-9.508,2.932-10.641,5.841-5.265-2.186-11,.679-11,.679l17.356,6.3a13.134,13.134,0,0,0-4.394-5.883Z" transform="translate(-198.146 -217.034)" fill="#282828"/>
  <path id="Path_21" data-name="Path 21" d="M375.5,264.888l8.675-6.938c-6.739-.743-9.508,2.932-10.641,5.841-5.265-2.186-11,.679-11,.679l17.356,6.3a13.134,13.134,0,0,0-4.394-5.883Z" transform="translate(-167.8 -213.688)" fill="#282828"/>
  <path id="Path_22" data-name="Path 22" d="M392.5,344.888l8.675-6.938c-6.739-.743-9.508,2.932-10.641,5.841-5.265-2.186-11,.679-11,.679l17.356,6.3a13.134,13.134,0,0,0-4.394-5.883Z" transform="translate(-168.781 -218.303)" fill="#282828"/>
  <path id="Path_23" data-name="Path 23" d="M750.5,386.888l8.675-6.938c-6.739-.743-9.508,2.932-10.641,5.841-5.265-2.186-11,.679-11,.679l17.356,6.3a13.134,13.134,0,0,0-4.394-5.883Z" transform="translate(-189.435 -220.726)" fill="#282828"/>
  <path id="Path_24" data-name="Path 24" d="M102.423,456H44v1.885h9.111v17.9H55v-17.9H90.485v17.9H92.37v-17.9h10.053Z" transform="translate(-2.538 -26.307)" fill="#282828"/>
  <path id="Path_25" data-name="Path 25" d="M323.032,674.869a13.116,13.116,0,0,0-6.569,1.763,14.117,14.117,0,0,0-23.585,10.487h43.3a13.183,13.183,0,0,0-13.145-12.25Z" transform="translate(-163.782 -237.637)" fill="#282828"/>
  <path id="Path_26" data-name="Path 26" d="M560.032,674.869a13.116,13.116,0,0,0-6.569,1.763,14.118,14.118,0,0,0-23.585,10.487h43.3a13.183,13.183,0,0,0-13.145-12.25Z" transform="translate(-177.455 -237.637)" fill="#282828"/>
  <path id="Path_27" data-name="Path 27" d="M715.032,674.869a13.116,13.116,0,0,0-6.569,1.763,14.117,14.117,0,0,0-23.585,10.487h43.3a13.183,13.183,0,0,0-13.145-12.25Z" transform="translate(-186.397 -237.637)" fill="#282828"/>
  <path id="Path_28" data-name="Path 28" d="M919.032,674.869a13.116,13.116,0,0,0-6.569,1.763,14.118,14.118,0,0,0-23.585,10.487h43.3a13.183,13.183,0,0,0-13.145-12.25Z" transform="translate(-198.166 -237.637)" fill="#282828"/>
  <path id="Path_29" data-name="Path 29" d="M1017.034,674.869a13.116,13.116,0,0,0-6.569,1.763,14.118,14.118,0,0,0-23.587,10.487h43.3a13.183,13.183,0,0,0-13.143-12.25Z" transform="translate(-203.82 -237.637)" fill="#282828"/>
  <path id="Path_30" data-name="Path 30" d="M128.077,407H113v15.077h6.989v50.8h1.885v-50.8h6.2Z" transform="translate(-6.519 -23.48)" fill="#282828"/>
  <rect id="Rectangle_93" data-name="Rectangle 93" width="58.423" height="1.885" transform="translate(41.577 424.054)" fill="#282828"/>
  <rect id="Rectangle_94" data-name="Rectangle 94" width="58.423" height="1.885" transform="translate(41.577 419.342)" fill="#282828"/>
  <rect id="Rectangle_95" data-name="Rectangle 95" width="58.423" height="1.885" transform="translate(41.577 414.631)" fill="#282828"/>
</svg>
